<?xml version="1.0" encoding="utf-8"?>
<!-- Generator: Adobe Illustrator 21.1.0, SVG Export Plug-In . SVG Version: 6.00 Build 0)  -->
<svg version="1.1" xmlns="http://www.w3.org/2000/svg" xmlns:xlink="http://www.w3.org/1999/xlink" x="0px" y="0px"
	 viewBox="0 0 1920 1080" style="enable-background:new 0 0 1920 1080;" xml:space="preserve">
<style type="text/css">
	.st0{fill:none;stroke:#000000;stroke-width:3.5;stroke-miterlimit:10;}
	.st1{fill:#02D8D9;stroke:#FFFFFF;stroke-width:3.5;stroke-miterlimit:10;}
</style>
<g id="Layer_3">
	<path class="st0" d="M-20.4,735.7c0,0,113,48.5,195.9,70.2c82.8,21.6,62.7,56.7,94.8,70.9s11.9,35.8,52.2,43.3s38.8,32.1,79.9,53
		c41,20.9,66.3,32.4,66.3,32.4c21.8,6.7,57.5-65.2,66.1-77.4s9.8-23.7,7.4-35.9s7.4-35.3,11.6-51.6s-110.4-86.9-134.1-98.8
		c-23.7-11.9-51.6-30-72.7-46.6c-21.1-16.6-46.9-28.5-72.7-37.7s-42.1-24.3-50.4-43.3s2.1-34.7,8.3-48.4
		c6.2-13.6,64.4-80.4,81.3-95.5s30.9-35.3,44.8-58.7c13.9-23.4,44.5-39.8,71.2-51.9c26.7-12.2,97.9-18.5,119-18.7
		c51.3-0.5,145.7-29.7,169.4-38.3c23.7-8.6,49-10.4,77.4-5.9s108.9,37.6,124.9,41.2c22.2,5,69.1-15.7,81-19s20.5,8,32.9,13.1
		c12.5,5,29.7-1.2,39.2-7.1s46-42.1,68.2-49s72.1-6.8,102.1,1.8c30,8.6,60.5,33.8,71.2,43.9s100.3,97,112.7,108.6s48.4,19,62.6,14.2
		c14.2-4.7,20.5,0,29.4,7.6s-8,17.7-21.7,20.9c-10.9,2.6-36.4,4.6-46.3,5.4c-2.3,0.2-3.9,2.2-3.7,4.4c0.6,6.1,1.9,17.5,3.8,24.7
		c2.7,10.1,21.1,3.9,22,12.5c0.9,8.6-22.3,12.2-22.3,23.1c0,10.3,18.4,13,20.6,13.3c0.1,0,0.3,0,0.4,0c5.6,0.2,137.1,4.5,145.5,4.2
		c8.6-0.3,17.2-4.5,24.3-4.2s14.5,7.1,14.5,7.1l93.7,86.8c1.6,1.5,1.7,4.1,0.2,5.7l-5.7,6c-1.5,1.6-4,1.7-5.6,0.2l-82.8-75.5
		c-0.8-0.7-1.7-1.1-2.7-1.1c-16,0.1-148.7,1.2-159.5,1.5c-11.6,0.3-16,5.3-19,20.2c-3,14.8,6.2,18.7,1.2,25.2
		c-4.5,5.8-72.6,31.8-72.6,31.8c-1.8,0.8-3.9,0.3-5-1.3l-0.8-1.1c-1.1-1.6-3.2-2.1-5-1.3l-6.2,2.9c-1.7,0.8-3.8,0.3-4.9-1.3l0,0
		c-1.2-1.7-3.6-2.1-5.4-1l-3,1.8c-1.7,1.1-2.4,3.3-1.6,5.1l3.4,7.5c0.9,2,0.1,4.3-1.8,5.3l-74.8,38.8c-1.1,0.6-2.3,0.6-3.4,0.1
		c-7.4-3.3-150.1,42.8-157.5,46.8c-1.6,0.9-2.4,2.7-2,4.4c3.3,14.8,6.8,47.7,8.1,61.7c0.3,3.1-2.9,5.4-5.8,4
		c-6.4-3.1-15.4-9.4-16.7-20.3c-1.7-13.7-7.3-23.1-9.5-26.3c-0.5-0.8-1.3-1.4-2.2-1.6c-23.7-6.5-65.8-9.5-98.5-7.3
		c-33.3,2.2-46.8,16.6-64.3,23.8s-83.7,3.1-93.6-2.7s-33.3-18.4-52.6-18s-27.4,15.3-31.9,25.6s-24.3,13.9-35.1,11.2s-22-2.7-39.6,0
		c-17.5,2.7-26.1,23.4-37.8,44.1s-15.3,35.1-14.4,50.4s-6.3,18.9-11.7,23.4s-20.7,18-30.1,33.3s-20,61.1-22.5,71.6
		c-3.5,14.7,14.3,25.2,20.7,31.6c0,0,41.2,32.1,51.5,58.7s22.4,55.7,70.8,66"/>
</g>
<g id="Layer_4">
	<path class="st1" d="M568.7,937"/>
	<path class="st1" d="M661.8,733.5"/>
	<path class="st1" d="M449.7,547.6"/>
	<path class="st1" d="M940,703.6"/>
	<path class="st1" d="M783.3,428.3"/>
	<path class="st1" d="M1075.8,398.5"/>
	<path class="st1" d="M1138.1,574.8"/>
	<path class="st1" d="M1389.1,591"/>
	<path class="st1" d="M1614.4,655.8"/>
</g>
</svg>
